;S75v47
;Замена звука разрядки аккума на звук в стиле SonyEriccson третьего поколения
;Change accum low sound to a sound on SonyEricsson third generation style
;(c) flexonight
;(p) Evgr
;Version: 
;PatchID: 9806
;Details: https://patches.kibab.com/patches/details.php5?id=9806
/*

*/

00FFCC8C: 4D546864000000060001000401E04D54 4D546864000000060001000600C04D54
00FFCC9C: 726B0000002200FF58040402180800FF 726B0000003600FF7F0D050F1C323030
00FFCCAC: 5902000000FF5405210000000000FF51 342E30392E303200FF7F08050F120000
00FFCCBC: 030249F000FF2F004D54726B00000107 7F7F0000FF58040402180800FF510306
00FFCCCC: 00FF20010000FF0308436C6176696E65 8A1B00FF5902000000FF2F004D54726B
00FFCCDC: 7400FF040B474D20476572E474202031 0000006D00FF7F05050F09404800FF7F
00FFCCEC: 00C02300B0077F00904157004D7F6C41 0F050F0647656E6572616C204D494449
00FFCCFC: 00004D000C4357004F7F664300004F00 00B5074600FF21010000FF0314202020
00FFCD0C: 124157004D7F6F4100004D0009435700 20202020202020202020202020202020
00FFCD1C: 4F7F744300004F00044157004D7F7241 2000C50C00953A6E2F853A4031953A6E
00FFCD2C: 00004D00064357004F7F654300004F00 2F853A4031953A6E2F853A4081119536
00FFCD3C: 134157004D7F684100004D0010435700 6E2F8536406195366E2F85364000FF2F
00FFCD4C: 4F7F6E4300004F000A4157004D7F813D 004D54726B0000006D00FF7F05050F09
00FFCD5C: 4100004D0086034157004D7F61410000 004000FF7F0F050F0647656E6572616C
00FFCD6C: 4D00174357004F7F714300004F000741 204D49444900B6074600FF21010000FF
00FFCD7C: 57004D7F704100004D00084357004F7F 03142020202020202020202020202020
00FFCD8C: 674300004F00114157004D7F70410000 20202020202000C62E00962E6E2F862E
00FFCD9C: 4D00084357004F7F594300004F001F41 4031962E6E2F862E4031962E6E2F862E
00FFCDAC: 57004D7F744100004D00044357004F7F 408111962A6E2F862A4061962A6E2F86
00FFCDBC: 6F4300004F00094157004D7F813C4100 2A4000FF2F004D54726B0000006C00FF
00FFCDCC: 004D0000FF2F004D54726B0000010700 7F05050F09004000FF7F0F050F064765
00FFCDDC: FF20010200FF0308436C6176696E6574 6E6572616C204D49444900B7074600FF
00FFCDEC: 00FF040B474D20476572E47420203300 21010000FF0314202020202020202020
00FFCDFC: C23200B2077F00924157004D7F6C4100 202020202020202020202000C7200097
00FFCE0C: 004D000C4357004F7F664300004F0012 496E2F8749403197496E2F8749403197
00FFCE1C: 4157004D7F6F4100004D00094357004F 496E2F87494031973D6E2F873D406197
00FFCE2C: 7F744300004F00044157004D7F724100 3D6E2F873D4000FF2F004D54726B0000
00FFCE3C: 004D00064357004F7F654300004F0013 008E00FF7F05050F09004000FF7F0F05
00FFCE4C: 4157004D7F684100004D00104357004F 0F0647656E6572616C204D49444900B8
00FFCE5C: 7F6E4300004F000A4157004D7F813D41 074700FF21010000FF03142020202020
00FFCE6C: 00004D0086034157004D7F614100004D 20202020202020202020202020202000
00FFCE7C: 00174357004F7F714300004F00074157 C8090098617E00527E2F886140005240
00FFCE8C: 004D7F704100004D00084357004F7F67 3198617E00557E2F8861400055403198
00FFCE9C: 4300004F00114157004D7F704100004D 617E00577E2F88614000574031984B7E
00FFCEAC: 00084357004F7F594300004F001F4157 2F884B400198637E2F88634031984B7E
00FFCEBC: 004D7F744100004D00044357004F7F6F 2F884B400198637E2F88634000FF2F00
00FFCECC: 4300004F00094157004D7F813C410000 4D54726B0000008E00FF7F05050F0900
00FFCEDC: 4D0000FF2F004D54726B000000A200FF 4000FF7F0F050F0647656E6572616C20
00FFCEEC: 20010100FF0308436C6176696E657400 4D49444900B4074700FF21010000FF03
00FFCEFC: FF040B474D20476572E47420203200C1 14202020202020202020202020202020
00FFCF0C: 2100B107560091357F6C35000C377F66 202020202000C4070094617E00527E2F
00FFCF1C: 370012357F6F350009377F7437000435 8461403152400094617E00557E2F8461
00FFCF2C: 7F72350006377F65370013357F683500 403155400094617E00577E2F84614031
00FFCF3C: 10377F6E37000A357F813D3500860335 574000944B7E2F844B400194637E2F84
00FFCF4C: 7F61350017377F71370007357F703500 634031944B7E2F844B400194637E2F84
00FFCF5C: 08377F67370011357F70350008377F59 634000FF2F00FFFFFFFFFFFFFFFFFFFF
00FFCF6C: 37001F357F74350004377F6F37000935 FFFFFFFFFFFFFFFFFFFFFFFFFFFFFFFF
00FFCF7C: 7F813C3500A954340100340000FF2F00 FFFFFFFFFFFFFFFFFFFFFFFFFFFFFFFF
01036434: 0xA1033CE4 0xA10334DC

;------------------------- end -------------------------

